<svg viewBox="0 0 512 512" xmlns="http://www.w3.org/2000/svg">
  <defs>
    <linearGradient id="bg" x1="0" y1="0" x2="1" y2="1">
      <stop offset="0" stop-color="#8b5cf6"/>
      <stop offset="1" stop-color="#5b21b6"/>
    </linearGradient>
  </defs>
  <!-- background -->
  <rect x="0" y="0" width="512" height="512" rx="104" fill="url(#bg)"/>
  <!-- ghost -->
  <path d="M126 252 a110 110 0 0 1 220 0 V392 L336 372 299 396 262 372 225 396 188 372 163 392 126 375 Z"
        fill="#ffffff" transform="translate(0,-14)"/>
  <!-- eyes -->
  <ellipse cx="201" cy="232" rx="17" ry="24" fill="#3b2a63"/>
  <ellipse cx="271" cy="232" rx="17" ry="24" fill="#3b2a63"/>
  <!-- chat bubble with typing dots -->
  <rect x="302" y="76" width="150" height="98" rx="30" fill="#fbbf24"/>
  <path d="M352 170 L330 212 L396 172 Z" fill="#fbbf24"/>
  <circle cx="345" cy="125" r="13" fill="#3b2a63"/>
  <circle cx="377" cy="125" r="13" fill="#3b2a63"/>
  <circle cx="409" cy="125" r="13" fill="#3b2a63"/>
</svg>
